<?xml version="1.0" encoding="UTF-8"?>
<svg width="40px" height="40px" viewBox="0 0 40 40" version="1.1" xmlns="http://www.w3.org/2000/svg" xmlns:xlink="http://www.w3.org/1999/xlink">
    <!-- Generator: Sketch 49 (51002) - http://www.bohemiancoding.com/sketch -->
    <title>leftpanel-Beginner-Blockchain-Architecture-Slope Copy</title>
    <desc>Created with Sketch.</desc>
    <defs>
        <rect id="path-1" x="0" y="0" width="40" height="40" rx="1.6"></rect>
        <filter x="-6.2%" y="-2.1%" width="110.8%" height="106.7%" filterUnits="objectBoundingBox" id="filter-3">
            <feOffset dx="-1" dy="0" in="SourceAlpha" result="shadowOffsetOuter1"></feOffset>
            <feColorMatrix values="0 0 0 0 0   0 0 0 0 0   0 0 0 0 0  0 0 0 0.2 0" type="matrix" in="shadowOffsetOuter1" result="shadowMatrixOuter1"></feColorMatrix>
            <feMerge>
                <feMergeNode in="shadowMatrixOuter1"></feMergeNode>
                <feMergeNode in="SourceGraphic"></feMergeNode>
            </feMerge>
        </filter>
        <radialGradient cx="15.4716706%" cy="15.8403914%" fx="15.4716706%" fy="15.8403914%" r="99.3977988%" id="radialGradient-4">
            <stop stop-color="#C2C9FF" offset="0%"></stop>
            <stop stop-color="#7F8BF6" offset="55.7311847%"></stop>
            <stop stop-color="#505AED" offset="100%"></stop>
        </radialGradient>
    </defs>
    <g id="Blockchain-Implementation" stroke="none" stroke-width="1" fill="none" fill-rule="evenodd">
        <g id="leftpanel-Beginner-Blockchain-Architecture-Slope-Copy">
            <g id="leftpanel-Certified-Ethereum-Slope-Copy">
                <g id="leftpanel-Certified-NEM-Slope-Copy">
                    <g id="leftpanel-blockchain-slope">
                        <g id="icons8-blockchain_new_logo">
                            <mask id="mask-2" fill="white">
                                <use xlink:href="#path-1"></use>
                            </mask>
                            <use id="Mask" fill="#000000" xlink:href="#path-1"></use>
                            <g opacity="0.359997736" mask="url(#mask-2)" fill-rule="nonzero" id="Shape">
                                <g transform="translate(20.078125, 19.921875) rotate(-315.000000) translate(-20.078125, -19.921875) translate(-7.812500, -7.968750)">
                                    <path d="M23.1970313,1.944375 L16.1765625,8.96484375 L27.9078906,20.7028125 L39.6192969,8.978125 L32.5855469,1.944375 C31.2879688,0.648125 29.5892969,0 27.890625,0 C26.1919531,0 24.4932813,0.648125 23.1970313,1.944375 Z" fill="#6A75F2"></path>
                                    <path d="M16.1765625,8.96484375 L1.944375,23.1970313 C0.648125,24.4932813 0,26.1919531 0,27.890625 C0,29.5892969 0.648125,31.2879688 1.944375,32.5842188 L8.99539063,39.6352344 L27.9078906,20.7028125 L16.1765625,8.96484375 Z" fill="#2D7FDD"></path>
                                    <polygon fill="#3461FF" points="51.2244531 20.5846094 39.6192969 8.978125 27.9078906 20.7028125 39.4280469 32.2322656"></polygon>
                                    <path d="M53.836875,23.1970313 L51.2244531,20.5846094 L39.4280469,32.2322656 L46.8057812,39.6153125 L53.8355469,32.5855469 C55.1211719,31.2999219 55.7692969,29.6185156 55.7799219,27.933125 C55.791875,26.2198438 55.14375,24.5039063 53.836875,23.1970313 Z" fill="#525DED"></path>
                                    <path d="M8.99539063,39.6352344 L23.1970313,53.836875 C24.4932813,55.133125 26.1919531,55.78125 27.890625,55.78125 C29.5892969,55.78125 31.2879688,55.133125 32.5842188,53.836875 L46.8057812,39.6153125 L27.9065625,20.7028125 L8.99539063,39.6352344 Z" fill="#206AFF"></path>
                                </g>
                            </g>
                        </g>
                    </g>
                </g>
            </g>
            <g id="icons8-network" filter="url(#filter-3)" transform="translate(20.000000, 20.000000) rotate(-315.000000) translate(-20.000000, -20.000000) translate(7.812500, 7.812500)" fill-rule="nonzero">
                <path d="M22.96875,8.90625 L22.5,8.90625 L22.5,7.96875 C22.5,7.45171875 22.0795313,7.03125 21.5625,7.03125 L21.5625,5.15625 C21.5625,3.86390625 20.5110938,2.8125 19.21875,2.8125 L17.34375,2.8125 C17.34375,2.29546875 16.9232813,1.875 16.40625,1.875 L15.46875,1.875 L15.46875,1.40625 C15.46875,0.6309375 14.8378125,0 14.0625,0 L10.3125,0 C9.5371875,0 8.90625,0.6309375 8.90625,1.40625 L8.90625,1.875 L7.96875,1.875 C7.45171875,1.875 7.03125,2.29546875 7.03125,2.8125 L5.15625,2.8125 C3.86390625,2.8125 2.8125,3.86390625 2.8125,5.15625 L2.8125,7.03125 C2.29546875,7.03125 1.875,7.45171875 1.875,7.96875 L1.875,8.90625 L1.40625,8.90625 C0.6309375,8.90625 0,9.5371875 0,10.3125 L0,14.0625 C0,14.8378125 0.6309375,15.46875 1.40625,15.46875 L1.875,15.46875 L1.875,16.40625 C1.875,16.9232813 2.29546875,17.34375 2.8125,17.34375 L2.8125,19.21875 C2.8125,20.5110938 3.86390625,21.5625 5.15625,21.5625 L7.03125,21.5625 C7.03125,22.0795313 7.45171875,22.5 7.96875,22.5 L8.90625,22.5 L8.90625,22.96875 C8.90625,23.7440625 9.5371875,24.375 10.3125,24.375 L14.0625,24.375 C14.8378125,24.375 15.46875,23.7440625 15.46875,22.96875 L15.46875,22.5 L16.40625,22.5 C16.9232813,22.5 17.34375,22.0795313 17.34375,21.5625 L19.21875,21.5625 C20.5110938,21.5625 21.5625,20.5110938 21.5625,19.21875 L21.5625,17.34375 C22.0795313,17.34375 22.5,16.9232813 22.5,16.40625 L22.5,15.46875 L22.96875,15.46875 C23.7440625,15.46875 24.375,14.8378125 24.375,14.0625 L24.375,10.3125 C24.375,9.5371875 23.7440625,8.90625 22.96875,8.90625 Z M20.625,8.90625 L20.625,7.96875 L21.5625,7.96875 L21.5625,8.90625 L20.625,8.90625 Z M16.40625,2.8125 L16.40625,3.75 L15.46875,3.75 L15.46875,2.8125 L16.40625,2.8125 Z M9.84375,1.40625 C9.84375,1.1475 10.0542188,0.9375 10.3125,0.9375 L14.0625,0.9375 C14.3207812,0.9375 14.53125,1.1475 14.53125,1.40625 L14.53125,5.15625 C14.53125,5.415 14.3207812,5.625 14.0625,5.625 L10.3125,5.625 C10.0542188,5.625 9.84375,5.415 9.84375,5.15625 L9.84375,1.40625 Z M7.96875,2.8125 L8.90625,2.8125 L8.90625,3.75 L7.96875,3.75 L7.96875,2.8125 Z M2.8125,7.96875 L3.75,7.96875 L3.75,8.90625 L2.8125,8.90625 L2.8125,7.96875 Z M0.9375,14.0625 L0.9375,10.3125 C0.9375,10.05375 1.14796875,9.84375 1.40625,9.84375 L5.15625,9.84375 C5.41453125,9.84375 5.625,10.05375 5.625,10.3125 L5.625,14.0625 C5.625,14.32125 5.41453125,14.53125 5.15625,14.53125 L1.40625,14.53125 C1.14796875,14.53125 0.9375,14.32125 0.9375,14.0625 Z M3.75,15.46875 L3.75,16.40625 L2.8125,16.40625 L2.8125,15.46875 L3.75,15.46875 Z M7.96875,21.5625 L7.96875,20.625 L8.90625,20.625 L8.90625,21.5625 L7.96875,21.5625 Z M14.53125,22.96875 C14.53125,23.2275 14.3207812,23.4375 14.0625,23.4375 L10.3125,23.4375 C10.0542188,23.4375 9.84375,23.2275 9.84375,22.96875 L9.84375,19.21875 C9.84375,18.96 10.0542188,18.75 10.3125,18.75 L14.0625,18.75 C14.3207812,18.75 14.53125,18.96 14.53125,19.21875 L14.53125,22.96875 Z M15.46875,21.5625 L15.46875,20.625 L16.40625,20.625 L16.40625,21.5625 L15.46875,21.5625 Z M20.625,19.21875 C20.625,19.9940625 19.9940625,20.625 19.21875,20.625 L17.34375,20.625 C17.34375,20.1079688 16.9232813,19.6875 16.40625,19.6875 L15.46875,19.6875 L15.46875,19.21875 C15.46875,18.4434375 14.8378125,17.8125 14.0625,17.8125 L10.3125,17.8125 C9.5371875,17.8125 8.90625,18.4434375 8.90625,19.21875 L8.90625,19.6875 L7.96875,19.6875 C7.45171875,19.6875 7.03125,20.1079688 7.03125,20.625 L5.15625,20.625 C4.3809375,20.625 3.75,19.9940625 3.75,19.21875 L3.75,17.34375 C4.26703125,17.34375 4.6875,16.9232813 4.6875,16.40625 L4.6875,15.46875 L5.15625,15.46875 C5.9315625,15.46875 6.5625,14.8378125 6.5625,14.0625 L6.5625,10.3125 C6.5625,9.5371875 5.9315625,8.90625 5.15625,8.90625 L4.6875,8.90625 L4.6875,7.96875 C4.6875,7.45171875 4.26703125,7.03125 3.75,7.03125 L3.75,5.15625 C3.75,4.3809375 4.3809375,3.75 5.15625,3.75 L7.03125,3.75 C7.03125,4.26703125 7.45171875,4.6875 7.96875,4.6875 L8.90625,4.6875 L8.90625,5.15625 C8.90625,5.9315625 9.5371875,6.5625 10.3125,6.5625 L14.0625,6.5625 C14.8378125,6.5625 15.46875,5.9315625 15.46875,5.15625 L15.46875,4.6875 L16.40625,4.6875 C16.9232813,4.6875 17.34375,4.26703125 17.34375,3.75 L19.21875,3.75 C19.9940625,3.75 20.625,4.3809375 20.625,5.15625 L20.625,7.03125 C20.1079688,7.03125 19.6875,7.45171875 19.6875,7.96875 L19.6875,8.90625 L19.21875,8.90625 C18.4434375,8.90625 17.8125,9.5371875 17.8125,10.3125 L17.8125,14.0625 C17.8125,14.8378125 18.4434375,15.46875 19.21875,15.46875 L19.6875,15.46875 L19.6875,16.40625 C19.6875,16.9232813 20.1079688,17.34375 20.625,17.34375 L20.625,19.21875 Z M21.5625,16.40625 L20.625,16.40625 L20.625,15.46875 L21.5625,15.46875 L21.5625,16.40625 Z M23.4375,14.0625 C23.4375,14.32125 23.2270312,14.53125 22.96875,14.53125 L19.21875,14.53125 C18.9604688,14.53125 18.75,14.32125 18.75,14.0625 L18.75,10.3125 C18.75,10.05375 18.9604688,9.84375 19.21875,9.84375 L22.96875,9.84375 C23.2270312,9.84375 23.4375,10.05375 23.4375,10.3125 L23.4375,14.0625 Z" id="Shape" fill="url(#radialGradient-4)"></path>
                <path d="M4.6875,13.125 C4.6875,13.38375 4.4775,13.59375 4.21875,13.59375 L2.34375,13.59375 C2.085,13.59375 1.875,13.38375 1.875,13.125 L1.875,11.25 C1.875,10.99125 2.085,10.78125 2.34375,10.78125 L4.21875,10.78125 C4.4775,10.78125 4.6875,10.99125 4.6875,11.25 L4.6875,13.125 Z" id="Shape" fill="#64ACFF"></path>
                <path d="M22.5,13.125 C22.5,13.38375 22.29,13.59375 22.03125,13.59375 L20.15625,13.59375 C19.8975,13.59375 19.6875,13.38375 19.6875,13.125 L19.6875,11.25 C19.6875,10.99125 19.8975,10.78125 20.15625,10.78125 L22.03125,10.78125 C22.29,10.78125 22.5,10.99125 22.5,11.25 L22.5,13.125 Z" id="Shape" fill="#64ACFF"></path>
                <path d="M13.59375,4.21875 C13.59375,4.4775 13.38375,4.6875 13.125,4.6875 L11.25,4.6875 C10.99125,4.6875 10.78125,4.4775 10.78125,4.21875 L10.78125,2.34375 C10.78125,2.085 10.99125,1.875 11.25,1.875 L13.125,1.875 C13.38375,1.875 13.59375,2.085 13.59375,2.34375 L13.59375,4.21875 Z" id="Shape" fill="#64ACFF"></path>
                <path d="M13.59375,22.03125 C13.59375,22.29 13.38375,22.5 13.125,22.5 L11.25,22.5 C10.99125,22.5 10.78125,22.29 10.78125,22.03125 L10.78125,20.15625 C10.78125,19.8975 10.99125,19.6875 11.25,19.6875 L13.125,19.6875 C13.38375,19.6875 13.59375,19.8975 13.59375,20.15625 L13.59375,22.03125 Z" id="Shape" fill="#64ACFF"></path>
            </g>
        </g>
    </g>
</svg>