<?xml version="1.0" encoding="UTF-8"?>
<svg width="40px" height="40px" viewBox="0 0 40 40" version="1.1" xmlns="http://www.w3.org/2000/svg" xmlns:xlink="http://www.w3.org/1999/xlink">
    <!-- Generator: Sketch 49 (51002) - http://www.bohemiancoding.com/sketch -->
    <title>leftpanel-Certified-NEM-Slope Copy 2</title>
    <desc>Created with Sketch.</desc>
    <defs>
        <rect id="path-1" x="0" y="0" width="40" height="40" rx="1.6"></rect>
        <filter x="-6.5%" y="-2.2%" width="108.8%" height="105.2%" filterUnits="objectBoundingBox" id="filter-3">
            <feOffset dx="-1" dy="0" in="SourceAlpha" result="shadowOffsetOuter1"></feOffset>
            <feColorMatrix values="0 0 0 0 0   0 0 0 0 0   0 0 0 0 0  0 0 0 0.204795063 0" type="matrix" in="shadowOffsetOuter1" result="shadowMatrixOuter1"></feColorMatrix>
            <feMerge>
                <feMergeNode in="shadowMatrixOuter1"></feMergeNode>
                <feMergeNode in="SourceGraphic"></feMergeNode>
            </feMerge>
        </filter>
    </defs>
    <g id="Blockchain-Implementation" stroke="none" stroke-width="1" fill="none" fill-rule="evenodd">
        <g id="leftpanel-Certified-NEM-Slope-Copy-2">
            <g id="leftpanel-blockchain-slope">
                <g id="icons8-blockchain_new_logo">
                    <mask id="mask-2" fill="white">
                        <use xlink:href="#path-1"></use>
                    </mask>
                    <use id="Mask" fill="#000000" xlink:href="#path-1"></use>
                    <g opacity="0.3" mask="url(#mask-2)" fill-rule="nonzero" id="Shape">
                        <g transform="translate(20.078125, 19.921875) rotate(-315.000000) translate(-20.078125, -19.921875) translate(-7.812500, -7.968750)">
                            <path d="M23.1970313,1.944375 L16.1765625,8.96484375 L27.9078906,20.7028125 L39.6192969,8.978125 L32.5855469,1.944375 C31.2879688,0.648125 29.5892969,0 27.890625,0 C26.1919531,0 24.4932813,0.648125 23.1970313,1.944375 Z" fill="#F7A800"></path>
                            <path d="M16.1765625,8.96484375 L1.944375,23.1970313 C0.648125,24.4932813 0,26.1919531 0,27.890625 C0,29.5892969 0.648125,31.2879688 1.944375,32.5842188 L8.99539063,39.6352344 L27.9078906,20.7028125 L16.1765625,8.96484375 Z" fill="#00C4B3"></path>
                            <polygon fill="#00C4B3" points="51.2244531 20.5846094 39.6192969 8.978125 27.9078906 20.7028125 39.4280469 32.2322656"></polygon>
                            <path d="M53.836875,23.1970313 L51.2244531,20.5846094 L39.4280469,32.2322656 L46.8057812,39.6153125 L53.8355469,32.5855469 C55.1211719,31.2999219 55.7692969,29.6185156 55.7799219,27.933125 C55.791875,26.2198438 55.14375,24.5039063 53.836875,23.1970313 Z" fill="#F7A800"></path>
                            <path d="M8.99539063,39.6352344 L23.1970313,53.836875 C24.4932813,55.133125 26.1919531,55.78125 27.890625,55.78125 C29.5892969,55.78125 31.2879688,55.133125 32.5842188,53.836875 L46.8057812,39.6153125 L27.9065625,20.7028125 L8.99539063,39.6352344 Z" fill="#67B2E8"></path>
                        </g>
                    </g>
                </g>
                <g id="nem-xem" filter="url(#filter-3)" transform="translate(9.062500, 9.218750)" fill-rule="nonzero">
                    <path d="M11.4903979,22.8125 L11.3588409,22.7470543 C6.22811618,19.7583675 2.34718339,14.828125 0.768498863,8.9380123 C0.516347862,8.01086492 0.329975383,7.06190232 0.19841834,6.1020321 C0.0778243829,5.14216189 0.012045861,4.17138405 0.00108277402,3.20060622 C0.00108277402,3.03699197 -0.0208433999,3.05880721 0.132639818,2.98245389 C2.06214313,1.89169228 4.10127731,1.0954363 6.26100544,0.593685963 C7.06131079,0.408256489 7.86161614,0.26645748 8.67288458,0.168288934 C9.79111945,0.037397541 10.9093543,-0.0171405396 12.0385523,0.00467469262 C12.6744113,0.0155823087 13.2993073,0.0592127732 13.9242032,0.12465847 C17.0706092,0.46279457 20.0196796,1.40084956 22.7823775,2.93882343 C22.8262299,2.96063866 22.8591191,2.98245389 22.9029715,3.00426913 C22.9468238,3.02608436 22.96875,3.05880721 22.96875,3.11334529 L22.96875,3.27695953 C22.9577869,3.84415557 22.9358607,4.40044399 22.8920084,4.96764003 C22.8262299,5.77480362 22.716599,6.5710596 22.5631158,7.36731557 C22.2342232,9.0798113 21.7189581,10.7268613 21.0063574,12.3084657 C19.8771595,14.828125 18.3313642,17.0750939 16.3799347,19.0384648 C14.9766596,20.4564549 13.4089382,21.6781079 11.6767704,22.6925162 C11.6109919,22.7361467 11.5561765,22.7688695 11.4903979,22.8125 Z M1.05353912,3.75689464 L1.05353912,3.88778603 C1.05353912,4.68404201 1.10835456,5.4912056 1.20702234,6.27655396 C1.29472704,6.99645663 1.41532099,7.70545167 1.5797673,8.41444672 C1.61265656,8.5344305 1.64554582,8.65441428 1.70036126,8.77439805 C2.68703908,10.8577527 4.96736118,11.9703296 7.22575709,11.4576716 C8.94696175,11.0649974 10.3502369,9.74517589 10.8216496,8.05449539 C10.9532067,7.5854679 10.997059,7.10553279 11.0189852,6.62559768 C11.0299483,6.30927681 11.0628375,5.99295594 11.117653,5.67663508 C11.4903979,3.75689464 12.7730791,2.1752903 14.5819885,1.42266479 C14.6806562,1.37903432 14.7902871,1.34631148 14.8889549,1.30268101 C14.899918,1.29177339 14.9218442,1.29177339 14.9218442,1.26995816 C14.6368039,1.17178962 12.9375254,0.99726776 11.9179583,0.975452527 C9.72534093,0.931822063 7.57657588,1.21542008 5.48262626,1.84806182 C3.92586791,2.31708931 2.45681426,2.94973105 1.05353912,3.75689464 Z M17.2240924,16.8242188 C17.2789079,16.7914959 17.3117971,16.7478654 17.3337233,16.7151426 C17.7722468,16.1697618 18.1888441,15.6025657 18.5725521,15.0135545 C19.942938,12.8974769 20.9076896,10.6177852 21.4448809,8.15266393 C21.6312534,7.31277749 21.7518473,6.47289105 21.828589,5.62209699 C21.8834044,5.04399334 21.9053306,4.46588969 21.9053306,3.87687842 C21.9053306,3.83324795 21.9053306,3.8005251 21.8943675,3.75689464 L21.7299212,3.65872609 C21.2804346,3.40785092 20.819985,3.16788337 20.3595353,2.94973105 C19.6798239,2.63341018 19.0001125,2.34981216 18.2875119,2.12075222 C17.421428,1.84806182 16.544381,1.81533897 15.6673341,2.03349129 C13.1567872,2.63341018 11.5452134,5.0876238 12.0275892,7.60728313 C12.2907033,9.00345799 13.0471563,10.0942196 14.2530958,10.8577527 C14.3298375,10.9122908 14.4175422,10.9559213 14.4942838,11.0104594 C15.3822938,11.5449325 16.0729683,12.2757428 16.5663072,13.181075 C17.0925354,14.1300376 17.3227602,15.1553535 17.2569817,16.2352075 C17.2679448,16.420637 17.2460186,16.616974 17.2240924,16.8242188 Z M11.4903979,21.6999232 C11.5342503,21.6781079 11.5890657,21.6453851 11.6329181,21.6126622 C13.014267,20.8054986 14.2859851,19.8456284 15.4480723,18.7548668 C15.5248139,18.6894211 15.5796294,18.6021602 15.6234817,18.5148992 C15.7002233,18.3731002 15.7769649,18.2203936 15.8427435,18.0785946 C16.3908978,16.9442025 16.5114918,15.76618 16.1497099,14.544527 C15.4371092,12.1884819 13.1567872,10.8359375 10.865502,11.1195355 C10.2077168,11.1958888 9.60474697,11.4031335 9.03466645,11.730362 C7.94932084,12.3411885 6.78723362,12.5920637 5.5374417,12.4720799 C4.92350883,12.4175418 4.34246522,12.2539276 3.78334778,12.01396 C3.3448243,11.817623 2.928227,11.5776554 2.55548204,11.2831498 C2.53355587,11.2613345 2.50066661,11.2504269 2.44585117,11.2177041 C2.45681426,11.2722421 2.46777734,11.304965 2.47874043,11.3267802 C2.97207935,12.5702485 3.57504913,13.748271 4.28764978,14.8717555 C5.06602896,16.0825009 5.954039,17.2059853 6.96264301,18.2313012 C7.97124701,19.2566171 9.07851879,20.1728569 10.2734953,20.9691129 C10.8216496,21.3181566 11.3369147,21.6344775 11.4903979,21.6999232 Z" id="Shape" fill="#FFFFFF"></path>
                    <path d="M0.948490772,3.71607107 C2.35530959,2.90779878 3.82807304,2.27428806 5.3777719,1.81553892 C7.48800012,1.19295081 9.63120067,0.898040646 11.8293551,0.94173104 C12.8514969,0.963576237 14.5550665,1.12741522 14.8408266,1.2366412 C14.8518174,1.2584864 14.8298358,1.269409 14.8078543,1.269409 C14.7089373,1.31309939 14.5990296,1.34586719 14.5001127,1.38955758 C12.6866353,2.14321688 11.400715,3.72699367 11.0270287,5.64937101 C10.9720749,5.96612637 10.9391025,6.28288173 10.9281118,6.59963709 C10.917121,7.08023142 10.8731579,7.56082576 10.7302779,8.03049749 C10.2466839,9.72350027 8.85085585,11.0451347 7.12530465,11.4383482 C4.86120561,11.9517104 2.57512503,10.8376053 1.58595555,8.751389 C1.53100169,8.63124041 1.4870386,8.51109183 1.46505706,8.39094325 C1.30019548,7.68097434 1.17929698,6.97100544 1.09137081,6.25011393 C0.99245386,5.45276424 0.9375,4.65541454 0.9375,3.85806485 C0.948490772,3.80345186 0.948490772,3.77068406 0.948490772,3.71607107 Z" id="Shape" fill="#F7A800"></path>
                    <path d="M17.1529375,16.875 C17.1749518,16.6667753 17.1969661,16.4804689 17.2079732,16.2832034 C17.2630089,15.1982429 17.031859,14.1680784 16.5145235,13.2146282 C16.0192023,12.3050149 15.3257525,11.5817079 14.4341743,11.0337481 C14.3571243,10.9789521 14.2690672,10.9351153 14.1920172,10.8803193 C12.9702249,10.1131755 12.2217394,9.02821505 11.9575681,7.61447865 C11.4842611,5.07194498 13.0913034,2.61708488 15.6119381,2.01432905 C16.5035164,1.80610431 17.3730803,1.82802271 18.2426443,2.10200263 C18.9581083,2.32118657 19.6405509,2.61708488 20.3229935,2.93490159 C20.7963004,3.15408553 21.2475931,3.39518786 21.6988858,3.64724939 C21.7539215,3.68012698 21.79795,3.70204537 21.8639929,3.74588216 C21.8639929,3.78971894 21.875,3.82259654 21.875,3.86643332 C21.875,4.44727076 21.8419786,5.03906739 21.79795,5.61990482 C21.7209001,6.47472218 21.5888144,7.32953953 21.4127002,8.16243849 C20.8733504,10.639217 19.9157293,12.9296891 18.5288299,15.0557733 C18.14358,15.64757 17.7253087,16.2174482 17.2850232,16.765408 C17.2409946,16.7982856 17.2189804,16.8421224 17.1529375,16.875 Z" id="Shape" fill="#67B2E8"></path>
                    <path d="M11.3727242,21.71875 C11.2083619,21.6532592 10.7043172,21.3476353 10.1674,20.9874357 C8.97303328,20.1906307 7.86632648,19.2737591 6.85823712,18.2477361 C5.85014777,17.2217131 4.95163334,16.0974539 4.18460883,14.8858735 C3.46141429,13.7616143 2.85875217,12.5827794 2.37662248,11.3384536 C2.36566499,11.3057082 2.35470749,11.2838779 2.34375,11.2293022 C2.39853747,11.2620477 2.42045245,11.2729628 2.45332493,11.2947931 C2.83683719,11.5895018 3.24226443,11.84055 3.68056415,12.0261073 C4.23939629,12.2662404 4.82014342,12.4299674 5.43376303,12.4845431 C6.67195974,12.6046096 7.833454,12.3535615 8.9292033,11.7423137 C9.49899294,11.4257747 10.1126125,11.2183871 10.7591046,11.131066 C13.0492207,10.8472724 15.3283792,12.2007495 16.0406163,14.5584194 C16.4022135,15.7699997 16.2926386,16.9488346 15.7338065,18.0949241 C15.657104,18.2477361 15.5913591,18.3896329 15.5146566,18.5315297 C15.4708266,18.6188508 15.4160392,18.7061719 15.3393367,18.7716627 C14.1778425,19.8631765 12.9067733,20.8237087 11.5261291,21.6314289 C11.4713417,21.6641743 11.4165542,21.6969197 11.3727242,21.71875 Z" id="Shape" fill="#00C4B3"></path>
                </g>
            </g>
        </g>
    </g>
</svg>